<svg width="530" height="149" viewBox="0 0 530 149" fill="none" xmlns="http://www.w3.org/2000/svg">
<path d="M56.9336 74.2832V84H7.56836V74.2832H56.9336ZM55.8105 20.4746L12.1094 84H3.90625V76.2363L47.7539 12.9062H55.8105V20.4746ZM51.2695 12.9062V22.6719H4.19922V12.9062H51.2695ZM233.779 12.9062V84H221.523L189.639 33.0723V84H177.383V12.9062H189.639L221.621 63.9316V12.9062H233.779ZM314.912 74.2832V84H277.168V74.2832H314.912ZM280.635 12.9062V84H268.379V12.9062H280.635ZM309.98 42.5938V52.1641H277.168V42.5938H309.98ZM314.668 12.9062V22.6719H277.168V12.9062H314.668ZM375.146 12.9062V84H362.988V12.9062H375.146ZM397.461 12.9062V22.6719H340.869V12.9062H397.461ZM456.865 12.9062V84H444.707V12.9062H456.865ZM479.18 12.9062V22.6719H422.588V12.9062H479.18ZM521.641 12.9062V84H509.385V12.9062H521.641Z" fill="#18181B"/>
<path d="M124.47 13.5L150.283 83.5H139.714L119.47 27.6214L118.983 26.2755L118.526 27.6322L99.7316 83.5H87.7173L113.53 13.5H124.47Z" fill="#18181B" stroke="black"/>
<path d="M151.492 119.562H155.145L164.461 142.746L173.758 119.562H177.43L165.867 148H163.016L151.492 119.562ZM150.301 119.562H153.523L154.051 136.906V148H150.301V119.562ZM175.379 119.562H178.602V148H174.852V136.906L175.379 119.562ZM217.266 119.562V148H213.496V119.562H217.266ZM273.996 119.562V148H270.207L255.891 126.066V148H252.121V119.562H255.891L270.266 141.555V119.562H273.996ZM323.832 140.812C323.832 140.148 323.728 139.562 323.52 139.055C323.324 138.534 322.973 138.065 322.465 137.648C321.97 137.232 321.28 136.835 320.395 136.457C319.522 136.079 318.415 135.695 317.074 135.305C315.668 134.888 314.398 134.426 313.266 133.918C312.133 133.397 311.163 132.805 310.355 132.141C309.548 131.477 308.93 130.715 308.5 129.855C308.07 128.996 307.855 128.013 307.855 126.906C307.855 125.799 308.083 124.777 308.539 123.84C308.995 122.902 309.646 122.089 310.492 121.398C311.352 120.695 312.374 120.148 313.559 119.758C314.743 119.367 316.065 119.172 317.523 119.172C319.659 119.172 321.469 119.582 322.953 120.402C324.451 121.21 325.59 122.271 326.371 123.586C327.152 124.888 327.543 126.281 327.543 127.766H323.793C323.793 126.698 323.565 125.754 323.109 124.934C322.654 124.1 321.964 123.449 321.039 122.98C320.115 122.499 318.943 122.258 317.523 122.258C316.182 122.258 315.076 122.46 314.203 122.863C313.331 123.267 312.68 123.814 312.25 124.504C311.833 125.194 311.625 125.982 311.625 126.867C311.625 127.466 311.749 128.013 311.996 128.508C312.257 128.99 312.654 129.439 313.188 129.855C313.734 130.272 314.424 130.656 315.258 131.008C316.104 131.359 317.113 131.698 318.285 132.023C319.9 132.479 321.293 132.987 322.465 133.547C323.637 134.107 324.6 134.738 325.355 135.441C326.124 136.132 326.69 136.919 327.055 137.805C327.432 138.677 327.621 139.667 327.621 140.773C327.621 141.932 327.387 142.98 326.918 143.918C326.449 144.855 325.779 145.656 324.906 146.32C324.034 146.984 322.986 147.499 321.762 147.863C320.551 148.215 319.197 148.391 317.699 148.391C316.384 148.391 315.089 148.208 313.812 147.844C312.549 147.479 311.397 146.932 310.355 146.203C309.327 145.474 308.5 144.576 307.875 143.508C307.263 142.427 306.957 141.177 306.957 139.758H310.707C310.707 140.734 310.896 141.574 311.273 142.277C311.651 142.967 312.165 143.54 312.816 143.996C313.48 144.452 314.229 144.79 315.062 145.012C315.909 145.22 316.788 145.324 317.699 145.324C319.014 145.324 320.128 145.142 321.039 144.777C321.951 144.413 322.641 143.892 323.109 143.215C323.591 142.538 323.832 141.737 323.832 140.812ZM364.195 119.562V148H360.426V119.562H364.195ZM381.363 119.562L369.547 132.824L362.906 139.719L362.281 135.695L367.281 130.188L376.832 119.562H381.363ZM377.73 148L367.203 134.133L369.449 131.145L382.223 148H377.73Z" fill="black"/>
</svg>
