<svg xmlns="http://www.w3.org/2000/svg" width="192" height="192" fill="#d0aa65" viewBox="0 0 256 256"><rect width="256" height="256" fill="none"></rect><path d="M176,80h42.6a7.9,7.9,0,0,1,7.4,5l14,35" fill="none" stroke="#d0aa65" stroke-linecap="round" stroke-linejoin="round" stroke-width="12"></path><line x1="16" y1="144" x2="176" y2="144" fill="none" stroke="#d0aa65" stroke-linecap="round" stroke-linejoin="round" stroke-width="12"></line><circle cx="188" cy="192" r="24" fill="none" stroke="#d0aa65" stroke-width="12" stroke-linecap="round" stroke-linejoin="round"></circle><circle cx="68" cy="192" r="24" fill="none" stroke="#d0aa65" stroke-width="12" stroke-linecap="round" stroke-linejoin="round"></circle><line x1="164" y1="192" x2="92" y2="192" fill="none" stroke="#d0aa65" stroke-linecap="round" stroke-linejoin="round" stroke-width="12"></line><path d="M44,192H24a8,8,0,0,1-8-8V72a8,8,0,0,1,8-8H176V171.2" fill="none" stroke="#d0aa65" stroke-linecap="round" stroke-linejoin="round" stroke-width="12"></path><path d="M176,120h64v64a8,8,0,0,1-8,8H212" fill="none" stroke="#d0aa65" stroke-linecap="round" stroke-linejoin="round" stroke-width="12"></path></svg>